HIERARCHY
ROOT ui
{
	 OFFSET 0 0 0
	 CHANNELS 3 XPosition YPosition Z Position
	 EndSite
	 {
	 OFFSET 0 -1 0
	 }
}
ROOT li
{
	 OFFSET 0 0 0
	 CHANNELS 3 XPosition YPosition Z Position
	 EndSite
	 {
	 OFFSET 0 -1 0
	 }
}
ROOT ul
{
	 OFFSET 0 0 0
	 CHANNELS 3 XPosition YPosition Z Position
	 EndSite
	 {
	 OFFSET 0 -1 0
	 }
}
ROOT ll
{
	 OFFSET 0 0 0
	 CHANNELS 3 XPosition YPosition Z Position
	 EndSite
	 {
	 OFFSET 0 -1 0
	 }
}
ROOT tt
{
	 OFFSET 0 0 0
	 CHANNELS 3 XPosition YPosition Z Position
	 EndSite
	 {
	 OFFSET 0 -1 0
	 }
}
ROOT tb
{
	 OFFSET 0 0 0
	 CHANNELS 3 XPosition YPosition Z Position
	 EndSite
	 {
	 OFFSET 0 -1 0
	 }
}
ROOT td
{
	 OFFSET 0 0 0
	 CHANNELS 3 XPosition YPosition Z Position
	 EndSite
	 {
	 OFFSET 0 -1 0
	 }
}
ROOT v
{
	 OFFSET 0 0 0
	 CHANNELS 3 XPosition YPosition Z Position
	 EndSite
	 {
	 OFFSET 0 -1 0
	 }
}
ROOT bn
{
	 OFFSET 0 0 0
	 CHANNELS 3 XPosition YPosition Z Position
	 EndSite
	 {
	 OFFSET 0 -1 0
	 }
}
MOTION
Frames: 18
Frame Time: 0.002
0.0029493999481201173	-9.824000298976899E-6	0		0.4783024291992187	-2.33554931640625	0		-0.961592529296875	0.10274676513671875	0		-0.8187301635742188	-2.000682861328125	0		1.4110399169921874	-0.5936041259765625	0		3.363514404296875	-0.25041075134277346	0		4.82317822265625	-0.15271266174316406	0		5.59539306640625	0.18252194213867187	0		-0.14192381286621095	5.89689404296875	0		
-0.029839742660522462	-0.004928769111633301	0		0.4669336853027344	-2.330732666015625	0		-0.9684268798828125	0.0953216552734375	0		-0.785309814453125	-2.0076983642578123	0		1.42728369140625	-0.6011027221679688	0		3.319013427734375	-0.237759521484375	0		4.84061328125	-0.14383221435546875	0		5.592548828125	0.17579728698730468	0		-0.1432494354248047	5.90147119140625	0		
-0.0015557769536972046	-0.005790088176727295	0		0.4914065246582031	-2.3374736328125	0		-0.9671368408203125	0.09575411224365235	0		-0.8326567993164062	-1.9995072021484375	0		1.4086744384765626	-0.599082275390625	0		3.345446044921875	-0.23019032287597657	0		4.83784228515625	-0.14864274597167967	0		5.59382958984375	0.17701597595214844	0		-0.15681912231445314	5.89121484375	0		
-0.030312688827514648	-0.007817337036132813	0		0.47488754272460937	-2.34261962890625	0		-0.9658646850585938	0.0961610336303711	0		-0.7863135375976562	-2.01175439453125	0		1.43001416015625	-0.5996843872070312	0		3.3526376953125	-0.23734671020507814	0		4.8432333984375	-0.14158901977539062	0		5.595091796875	0.17822219848632812	0		-0.15626792907714843	5.89072021484375	0		
-0.0030656700134277346	-0.007711661815643311	0		0.48049594116210936	-2.337126953125	0		-0.9605686645507813	0.10047783660888672	0		-0.8197412109375	-2.0058382568359376	0		1.4133974609375	-0.5947494506835938	0		3.337258056640625	-0.21319398498535155	0		4.84449951171875	-0.14050358581542968	0		5.5914375	0.1874725341796875	0		-0.2607264404296875	5.89275048828125	0		
-0.02075920295715332	2.5259999558329583E-5	0		0.4751263122558594	-2.32650830078125	0		-0.9553218383789063	0.1047617416381836	0		-0.7423360595703125	-2.0085941162109373	0		1.4356529541015626	-0.5954281616210938	0		3.363305419921875	-0.22469807434082031	0		4.840849609375	-0.130387451171875	0		5.60161474609375	0.18847418212890624	0		-0.14008831787109374	5.90241455078125	0		
0.003322674989700317	-0.0038917720317840575	0		0.4745146179199219	-2.3280029296875	0		-0.9582494506835938	0.10112772369384766	0		-0.8189480590820313	-2.0071253662109374	0		1.415882568359375	-0.5935327758789063	0		3.38548681640625	-0.22318699645996093	0		4.8420078125	-0.12939590454101563	0		5.60273486328125	0.1895555419921875	0		-0.13964251708984374	5.90281787109375	0		
-0.02258218765258789	-0.0021228458881378176	0		0.5007832336425782	-2.332930908203125	0		-0.9252446899414063	0.09693448638916016	0		-0.7497928466796875	-2.0178223876953125	0		1.4349681396484375	-0.5972522583007812	0		3.35153564453125	-0.22591534423828125	0		4.84310009765625	-0.12846406555175782	0		5.59967578125	0.18263296508789062	0		-0.2745292053222656	5.8841337890625	0		
0.001365880012512207	-0.0061201128959655765	0		0.47304962158203123	-2.33212548828125	0		-0.9602440795898437	0.09768413543701172	0		-0.8214848022460938	-2.0115233154296877	0		1.4160576171875	-0.5954734497070312	0		3.35256787109375	-0.22521311950683592	0		4.84412158203125	-0.12759828948974608	0		5.5957783203125	0.19165260314941407	0		-0.27416683959960936	5.8844384765625	0		
0.006343969821929932	-0.002887336015701294	0		0.48718487548828127	-2.334970703125	0		-0.9593191528320313	0.09787349700927735	0		-0.7714436645507813	-2.019016357421875	0		1.4190975341796874	-0.5920640869140625	0		3.37245361328125	-0.22984225463867186	0		4.84994140625	-0.1358715057373047	0		5.6056923828125	0.1924002227783203	0		-0.12343582916259765	5.912560546875	0		
-0.012693641662597656	0.004640207767486572	0		0.48346371459960935	-2.32160791015625	0		-0.93444189453125	0.09968286895751953	0		-0.802278564453125	-2.01139697265625	0		1.4339033203125	-0.59987451171875	0		3.35666455078125	-0.2060222625732422	0		4.84594384765625	-0.1260720901489258	0		5.61164697265625	0.20113388061523438	0		-0.13829147338867187	5.904005859375	0		
0.011047349929809571	0.0015161269903182983	0		0.4804013061523438	-2.32630517578125	0		-0.9576913452148438	0.09813079071044922	0		-0.74537646484375	-2.0170595703125	0		1.4208602294921875	-0.5913419799804688	0		3.34021875	-0.22326148986816408	0		4.84674169921875	-0.1254097137451172	0		5.60318994140625	0.185997314453125	0		-0.13905500793457032	5.90520654296875	0		
-0.021337562561035157	-0.004866907119750977	0		0.481322265625	-2.326106689453125	0		-0.9569905395507813	0.09819863891601563	0		-0.7824799194335937	-2.0164422607421875	0		1.4395660400390624	-0.5953088989257812	0		3.360016845703125	-0.21806895446777344	0		4.847462890625	-0.12481475830078125	0		5.60388232421875	0.18666094970703126	0		-0.15303370666503907	5.894544921875	0		
0.005293942928314209	-0.005119572162628174	0		0.50708349609375	-2.331302001953125	0		-0.9563653564453125	0.098226318359375	0		-0.8206697387695312	-2.0158587646484376	0		1.420266357421875	-0.5937985229492188	0		3.35660009765625	-0.222615234375	0		4.84810693359375	-0.1242894744873047	0		5.6045	0.18725108337402344	0		-0.27304644775390624	5.885306640625	0		
-0.02014413833618164	-0.004695428848266602	0		0.4648199462890625	-2.33160302734375	0		-0.9517594604492188	0.1021592788696289	0		-0.8110462646484375	-2.0229827880859377	0		1.422914306640625	-0.5906471557617188	0		3.34049560546875	-0.19904838562011717	0		4.82667822265625	-0.12353179168701171	0		5.59015576171875	0.1959722137451172	0		-0.27295977783203124	5.88535009765625	0		
0.017477548599243165	0.004817130088806153	0		0.5214358520507812	-2.3353134765625	0		-0.9472249145507813	0.10605514526367188	0		-0.8053389892578126	-2.0180902099609375	0		1.426500732421875	-0.5865597534179687	0		3.36763916015625	-0.22514363098144533	0		4.8491728515625	-0.12344962310791016	0		5.609626953125	0.19615269470214844	0		-0.13862376403808593	5.9055126953125	0		
-0.01214039707183838	0.002209507942199707	0		0.48617340087890626	-2.32380517578125	0		-0.9549202270507813	0.09808027648925781	0		-0.745809814453125	-2.0209697265625	0		1.4448924560546874	-0.5917232666015625	0		3.3662529296875	-0.21190005493164063	0		4.83860302734375	-0.122978271484375	0		5.61003369140625	0.19652725219726563	0		-0.13861691284179686	5.905484375	0		
0.007120411872863769	-0.005105799198150635	0		0.5095866088867187	-2.33114208984375	0		-0.9545689086914062	0.0979603500366211	0		-0.7774521484375	-2.0306405029296877	0		1.4243045654296875	-0.5904005737304687	0		3.36255712890625	-0.2166813507080078	0		4.8499677734375	-0.12286696624755859	0		5.6062705078125	0.18889361572265626	0		-0.1386470947265625	5.90541796875	0		
